# xmcd
#
# Track frame offsets:
#	150
#	18988
#	38837
#	54964
#	75418
#	92075
#	107469
#	127035
#	142824
#	160875
#	182768
#	201685
#	218386
#	236164
#	256764
#	274583
#	305197
#
# Disc length: 4077 seconds
#
# Revision: 1
# Processed by: cddbd v1.5.2PL0 Copyright (c) Steve Scherf et al.
# Submitted via: audiograbber 1.83.01
#
DISCID=e20feb11
DTITLE=Various Artist - mixed country fun pack TTFP-81&82
DYEAR=1900
DGENRE=karaoke
TTITLE0=Sara Evans - Perfect
TTITLE1=Brooks and Dunn - Red Dirt Road
TTITLE2=Gretchen Wilson - Redneck Woman
TTITLE3=Alan Jackson - Remember When
TTITLE4=Big and Rich - Save A Horse Ride A Cowboy
TTITLE5=Joe Nichols - She Only Smokes When She Drinks
TTITLE6=Tim Mcgraw - She`s My Kind Of Rain
TTITLE7=George Strait - Tell Me Something Bad About Tulsa
TTITLE8=Gary Allan - Tough Little Boys
TTITLE9=Dixie Chicks - Travelin` Soldier
TTITLE10=Pat Green - Wave On Wave
TTITLE11=Wynonna - What The World Needs
TTITLE12=Dierks Bentley - What Was I Thinkin`
TTITLE13=Martina Mcbride - Where Would You Be
TTITLE14=Keith Urban - You Look Good In My Shirt
TTITLE15=Vince Gill  - Young Man`s Town
TTITLE16=none - Data Track
EXTD=cd 2  top tunes karaoke
EXTT0=cd 2 top tunes karaoke
EXTT1=
EXTT2=
EXTT3=
EXTT4=
EXTT5=
EXTT6=
EXTT7=
EXTT8=
EXTT9=
EXTT10=
EXTT11=
EXTT12=
EXTT13=
EXTT14=
EXTT15=
EXTT16=
PLAYORDER=
